<svg xmlns="http://www.w3.org/2000/svg" width="1024" height="1210" viewBox="0 0 1024 1210" version="1.1">
	<path d="M 493.235 14.497 C 464.342 19.735, 439.862 34.705, 422.618 57.682 C 411.030 73.122, 404.162 90.199, 401.231 110.864 C 396.915 141.290, 406.950 173.469, 428.437 198.107 C 431.458 201.570, 433.832 204.501, 433.714 204.620 C 433.595 204.738, 425.399 206.460, 415.499 208.446 C 330.893 225.421, 258.467 260.158, 190.594 316.316 C 176.124 328.289, 142.713 361.542, 131.129 375.500 C 64.543 455.737, 26.508 545.245, 15.335 648 C 12.807 671.250, 12.807 724.750, 15.335 748 C 26.435 850.077, 64.513 940.174, 129.869 1019 C 142.140 1033.800, 176.200 1067.860, 191 1080.131 C 269.809 1145.473, 359.945 1183.568, 462 1194.665 C 485.250 1197.193, 538.750 1197.193, 562 1194.665 C 664.055 1183.568, 754.191 1145.473, 833 1080.131 C 847.800 1067.860, 881.860 1033.800, 894.131 1019 C 959.473 940.191, 997.568 850.055, 1008.665 748 C 1011.193 724.750, 1011.193 671.250, 1008.665 648 C 997.491 545.243, 959.525 455.889, 892.879 375.500 C 882.190 362.607, 847.393 327.810, 834.500 317.121 C 753.918 250.315, 665.493 212.767, 562 201.409 C 542.565 199.276, 501.701 198.504, 482.624 199.910 C 473.891 200.554, 466.563 200.896, 466.337 200.671 C 466.112 200.445, 472.131 199.295, 479.714 198.114 C 510.935 193.253, 518.993 192.686, 560.353 192.441 L 600.206 192.204 603.483 187.595 C 611.983 175.640, 619.858 155.514, 622.070 140.097 C 623.832 127.812, 622.765 108.836, 619.631 96.723 C 616.606 85.032, 610.051 70.794, 602.992 60.583 C 597.035 51.966, 583.177 38.231, 574.498 32.342 C 551.275 16.584, 519.825 9.678, 493.235 14.497 M 501.402 77.486 C 493.091 79.294, 485.691 83.233, 479.361 89.220 C 468.759 99.247, 464 110.148, 464 124.408 C 464 137.798, 467.832 147.630, 476.778 157.194 C 504.011 186.308, 552.645 171.168, 559.213 131.532 C 562.543 111.440, 551.389 90.310, 532.792 81.478 C 521.620 76.173, 512.669 75.034, 501.402 77.486 M 489.500 338.587 C 487.300 338.804, 480.550 339.453, 474.500 340.030 C 443.256 343.005, 408.828 351.492, 377 364.063 C 372.325 365.910, 360.625 371.362, 351 376.180 C 280.471 411.480, 225.500 466.451, 190.177 537 C 170.291 576.716, 159.668 612.641, 153.806 660 C 151.808 676.136, 152.130 723.084, 154.358 740.500 C 167.815 845.717, 223.199 936.928, 309.039 995.240 C 358.126 1028.586, 409.976 1048.112, 469.500 1055.667 C 489.165 1058.163, 534.835 1058.163, 554.500 1055.667 C 614.024 1048.112, 665.874 1028.586, 714.961 995.240 C 765.874 960.655, 805.893 914.784, 833.823 859 C 853.756 819.189, 864.433 783.084, 870.198 736 C 871.900 722.102, 871.894 673.828, 870.189 660 C 864.364 612.753, 853.711 576.720, 833.823 537 C 798.500 466.451, 743.529 411.480, 673 376.180 C 634.151 356.735, 598.148 345.906, 554 340.388 C 543.023 339.016, 497.913 337.756, 489.500 338.587 M 473 601 L 473 658 415.500 658 L 358 658 358 697 L 358 736 415.500 736 L 473 736 473 793 L 473 850 511.500 850 L 550 850 550 793 L 550 736 608 736 L 666 736 666 697 L 666 658 608 658 L 550 658 550 601 L 550 544 511.500 544 L 473 544 473 601" stroke="none" fill="black" fill-rule="evenodd"/>
</svg>